<svg viewBox="0 0 1600 919" xmlns="http://www.w3.org/2000/svg"><defs><linearGradient x1="50%" y1="100%" x2="50%" y2="58.123%" id="a"><stop stop-color="#F4F4F4" offset="0%"/><stop stop-color="#F4F4F4" offset="100%"/></linearGradient><linearGradient x1="50%" y1="100%" x2="50%" y2="71.525%" id="b"><stop stop-color="#E9DFD3" stop-opacity="0" offset="0%"/><stop stop-color="#0E0022" stop-opacity=".082" offset="100%"/></linearGradient><linearGradient x1="50%" y1="100%" x2="50%" y2="57.115%" id="c"><stop stop-color="#E9DFD3" stop-opacity="0" offset="0%"/><stop stop-color="#0E0022" stop-opacity=".082" offset="100%"/></linearGradient></defs><g fill="none" fill-rule="evenodd"><path fill="#F8F7F3" opacity=".06" d="M0 367.5l436.818-39.32 365.674-96.188 443.774-38.975L1597.02 0l.985 424.44L0 449.2"/><path fill="url(#a)" d="M0 403.027l426.804-38.74 373.217-93.378 443.103 5.174L1600 102v380H.036"/><path fill="url(#b)" opacity=".2" d="M0 596.558l427.642-39.624 374.854-131.75 445.544-30.943L1600 257v544.172H0"/><path fill="url(#c)" opacity=".2" d="M0 808.08l421.195-64.085 376.86-151.31 442.254-20.918L1600 412v506.53L0 918.45"/></g></svg>
